<?xml version="1.0" standalone="no"?>
<!DOCTYPE svg PUBLIC "-//W3C//DTD SVG 20010904//EN"
 "http://www.w3.org/TR/2001/REC-SVG-20010904/DTD/svg10.dtd">
<svg version="1.0" xmlns="http://www.w3.org/2000/svg"
 width="600.000000pt" height="600.000000pt" viewBox="0 0 600.000000 600.000000"
 preserveAspectRatio="xMidYMid meet">
<metadata>
Created by potrace 1.11, written by Peter Selinger 2001-2013
</metadata>
<g transform="translate(0.000000,600.000000) scale(0.100000,-0.100000)"
fill="#000000" stroke="none">
<path d="M2937 5954 c-1 -1 -51 -5 -112 -8 -179 -11 -237 -18 -355 -43 -41 -8
-84 -17 -95 -19 -52 -10 -240 -60 -265 -71 -8 -3 -22 -7 -30 -9 -68 -14 -507
-213 -565 -256 -5 -4 -71 -48 -145 -97 -194 -128 -439 -342 -570 -497 -91
-108 -127 -154 -193 -245 -40 -57 -96 -142 -124 -189 -60 -100 -172 -323 -198
-395 -10 -27 -22 -54 -25 -60 -6 -8 -51 -134 -55 -155 -1 -3 -10 -32 -20 -65
-10 -33 -20 -64 -21 -70 -1 -5 -11 -48 -22 -95 -11 -47 -23 -101 -26 -120 -3
-19 -8 -46 -11 -60 -44 -228 -53 -599 -20 -865 51 -406 191 -809 402 -1155 35
-58 69 -114 76 -125 7 -11 14 -22 17 -25 3 -3 23 -30 45 -60 113 -159 213
-270 436 -482 53 -50 232 -186 331 -250 143 -93 140 -91 221 -133 73 -38 72
-36 44 -105 -5 -14 -11 -29 -13 -35 -1 -5 -18 -46 -37 -90 -19 -44 -37 -90
-41 -103 l-7 -22 251 2 252 3 26 65 c14 36 27 67 29 69 1 2 13 -1 26 -7 19 -9
157 -47 206 -57 9 -2 52 -11 96 -20 44 -9 94 -18 110 -20 17 -2 50 -6 75 -9
132 -19 216 -23 425 -21 127 2 246 5 265 9 19 3 55 8 80 11 161 21 349 62 499
110 13 4 21 2 21 -6 0 -6 12 -38 26 -70 l27 -59 248 0 c137 0 249 1 249 3 0 4
-37 101 -55 142 -9 22 -23 54 -30 70 -25 58 -38 96 -34 99 2 2 54 32 114 67
88 50 245 150 300 191 27 20 200 163 215 177 9 9 39 37 66 62 435 410 732 942
859 1540 9 41 18 85 20 99 2 14 6 45 10 70 21 140 32 308 29 485 -1 110 -5
209 -7 221 -3 12 -8 45 -12 75 -9 76 -24 180 -29 204 -2 11 -7 31 -10 45 -3
14 -8 36 -10 50 -2 14 -11 50 -20 81 -9 31 -19 67 -21 79 -23 122 -168 467
-271 646 -32 58 -166 267 -174 274 -3 3 -19 23 -36 45 -350 474 -867 844
-1444 1035 -66 22 -235 67 -280 76 -23 4 -87 17 -150 29 -14 3 -47 8 -75 11
-27 2 -65 7 -83 9 -77 11 -397 26 -405 19z m283 -318 c52 -4 104 -9 115 -11
19 -4 62 -11 135 -20 19 -3 62 -12 95 -20 33 -9 72 -17 86 -19 14 -2 41 -8 61
-15 19 -6 44 -13 54 -16 37 -7 221 -76 304 -112 136 -60 352 -180 450 -251
167 -121 237 -180 360 -302 63 -63 175 -189 198 -222 9 -13 19 -25 22 -28 34
-26 191 -270 263 -410 48 -94 125 -268 132 -299 2 -9 16 -49 30 -90 27 -78 74
-255 81 -306 3 -16 9 -52 14 -80 32 -162 43 -437 27 -655 -7 -93 -10 -120 -23
-190 -4 -19 -8 -42 -9 -50 -1 -8 -5 -28 -9 -45 -3 -16 -9 -43 -12 -60 -3 -16
-10 -48 -16 -70 -5 -22 -12 -48 -14 -58 -8 -42 -98 -294 -131 -365 -84 -185
-233 -442 -290 -500 -7 -7 -13 -17 -13 -20 0 -4 -10 -18 -22 -32 -13 -14 -41
-47 -62 -74 -119 -148 -322 -338 -486 -454 -36 -26 -67 -49 -70 -52 -3 -4 -12
-10 -20 -13 -8 -4 -27 -15 -41 -25 -78 -51 -194 -112 -206 -108 -7 3 -13 14
-13 24 0 10 -4 22 -8 27 -4 6 -23 48 -41 95 -18 47 -36 92 -41 101 -4 8 -20
47 -35 85 -15 38 -36 87 -45 109 -47 105 -50 118 -39 131 6 8 16 14 21 14 16
0 188 119 273 189 98 80 221 204 296 297 61 75 173 245 204 309 11 22 23 42
28 43 4 2 7 8 7 13 0 6 12 36 26 67 26 56 72 173 80 202 2 8 17 65 34 125 16
61 32 128 35 150 3 22 8 56 11 75 11 77 18 180 18 275 0 99 -12 276 -19 298
-3 7 -6 30 -9 52 -22 193 -141 506 -270 715 -129 208 -353 451 -526 570 -19
13 -37 27 -40 30 -9 12 -205 125 -270 157 -145 71 -302 124 -461 158 -161 34
-218 39 -419 39 -182 0 -274 -6 -350 -23 -25 -5 -56 -12 -70 -14 -149 -27
-409 -120 -511 -183 -20 -13 -40 -20 -43 -17 -3 4 -6 1 -6 -5 0 -7 -5 -12 -10
-12 -13 0 -144 -81 -148 -92 -2 -4 -8 -8 -14 -8 -18 0 -210 -161 -292 -244
-112 -114 -246 -288 -302 -391 -6 -11 -29 -54 -51 -95 -63 -116 -152 -354
-170 -450 -2 -14 -9 -45 -14 -70 -23 -97 -27 -129 -35 -237 -8 -98 -8 -284 0
-353 31 -288 97 -517 219 -750 44 -85 165 -273 178 -278 5 -2 9 -10 9 -17 0
-7 3 -15 8 -17 4 -2 25 -24 45 -50 77 -95 227 -237 346 -328 37 -29 206 -137
222 -142 9 -3 -21 -83 -161 -423 -59 -143 -64 -155 -71 -155 -6 0 -70 35 -148
81 -160 93 -388 275 -528 420 -100 105 -122 130 -181 209 -31 41 -59 77 -62
80 -14 12 -126 184 -163 250 -127 224 -225 481 -280 731 -29 129 -35 169 -54
354 -13 129 -7 448 11 555 3 14 7 42 10 63 3 20 9 54 12 75 18 119 102 409
141 484 7 15 13 29 12 30 -9 21 212 442 251 478 3 3 19 25 35 50 16 25 32 47
36 50 3 3 18 23 34 45 17 22 32 42 35 45 3 3 34 39 70 80 94 108 247 256 335
323 5 4 24 19 40 32 52 43 247 172 325 215 342 187 720 300 1090 326 47 4 86
7 87 8 4 3 228 -2 313 -8z m35 -941 c91 -12 256 -55 354 -91 126 -47 334 -157
405 -215 6 -5 38 -30 71 -56 309 -244 542 -631 610 -1018 35 -199 39 -428 9
-580 -2 -11 -9 -47 -14 -80 -6 -33 -15 -71 -20 -85 -6 -14 -11 -34 -13 -45 -2
-11 -7 -27 -10 -35 -3 -8 -14 -40 -25 -70 -11 -30 -28 -73 -38 -95 -10 -22
-18 -42 -19 -45 0 -3 -24 -49 -54 -104 -98 -181 -256 -369 -422 -501 -41 -33
-76 -62 -79 -65 -3 -3 -36 -25 -73 -48 l-68 -43 -13 33 c-238 576 -229 551
-212 560 47 26 153 128 222 213 107 131 201 335 219 475 3 19 7 46 10 60 13
59 5 299 -11 352 -3 9 -7 27 -9 39 -10 53 -49 159 -84 229 -143 288 -406 501
-716 576 -101 25 -126 28 -250 28 -179 1 -288 -21 -438 -85 -352 -152 -612
-498 -651 -869 -29 -264 33 -515 179 -735 66 -99 201 -239 274 -284 9 -6 -10
-59 -84 -236 -4 -11 -9 -22 -9 -25 -4 -15 -69 -167 -76 -175 -5 -5 -8 -12 -7
-15 1 -3 -9 -33 -23 -67 -17 -44 -30 -63 -42 -63 -10 0 -18 5 -18 10 0 6 -6
10 -13 10 -12 0 -156 104 -221 160 -53 45 -148 144 -198 205 -27 33 -53 66
-59 73 -32 38 -132 209 -167 283 -70 146 -132 351 -147 484 -3 28 -7 66 -10
85 -7 48 -7 264 0 325 41 364 173 675 405 949 41 48 159 164 209 204 25 20 55
45 65 55 11 9 23 17 27 17 4 0 14 6 21 13 48 46 388 222 388 200 0 -3 7 0 15
7 8 7 15 9 15 5 0 -4 6 -3 13 2 10 9 39 19 82 28 6 2 30 8 55 15 124 34 247
47 420 44 96 -1 198 -5 225 -9z m-95 -929 c209 -38 420 -188 528 -377 38 -67
80 -176 88 -227 3 -20 7 -43 10 -51 10 -31 4 -200 -10 -266 -31 -148 -106
-286 -209 -389 l-60 -59 -32 79 c-18 43 -58 142 -89 219 -31 77 -62 151 -70
165 -11 20 -11 33 -1 66 18 61 10 142 -20 206 -78 164 -266 226 -431 140 -43
-22 -124 -107 -124 -129 0 -7 -4 -13 -8 -13 -5 0 -9 -6 -9 -12 0 -7 -5 -32
-11 -55 -11 -46 -7 -115 7 -141 9 -16 1 -37 -124 -344 -38 -93 -73 -168 -78
-168 -18 0 -124 121 -165 190 -24 40 -57 113 -74 164 -29 84 -31 101 -31 226
0 148 5 190 34 257 10 24 19 49 19 55 0 11 78 147 94 164 6 6 29 33 50 58 22
26 67 68 100 93 60 45 196 119 196 107 0 -4 6 -2 13 4 17 14 83 32 142 39 28
3 51 7 53 8 5 5 175 -3 212 -9z m-111 -1464 c16 -40 26 -74 22 -76 -5 -3 -106
-1 -121 3 -2 1 1 6 8 13 7 7 12 18 12 25 0 14 42 114 46 110 2 -2 16 -35 33
-75z m-34 -386 c44 0 101 3 126 6 25 4 50 3 55 0 13 -9 138 -305 241 -568 5
-12 -15 -17 -202 -47 -84 -14 -385 -16 -440 -4 -11 3 -60 13 -110 22 -49 10
-91 19 -93 20 -2 2 89 232 123 310 8 17 27 64 43 105 17 41 39 96 51 123 l20
47 53 -7 c29 -4 89 -7 133 -7z m583 -956 c11 -25 43 -103 72 -175 28 -71 58
-143 66 -160 31 -69 54 -137 49 -145 -3 -5 -20 -12 -38 -16 -17 -4 -35 -9 -39
-10 -5 -1 -9 -3 -10 -4 -2 -1 -12 -4 -23 -6 -11 -1 -49 -10 -85 -19 -36 -9
-81 -19 -100 -21 -19 -2 -48 -6 -65 -10 -85 -19 -220 -28 -415 -28 -158 0
-346 10 -361 19 -3 2 -25 6 -50 9 -24 3 -87 15 -139 27 -52 11 -102 22 -110
23 -26 4 -95 28 -103 36 -5 4 19 74 53 156 33 82 84 208 112 279 29 72 53 132
55 134 1 2 47 -5 100 -17 54 -12 121 -24 148 -28 28 -4 59 -9 70 -11 39 -9
381 -11 440 -3 33 5 82 12 110 16 27 3 88 16 135 28 l85 22 12 -25 c7 -14 21
-46 31 -71z"/>
</g>
</svg>
